<?xml version="1.0" standalone="no"?>
<!DOCTYPE svg PUBLIC "-//W3C//DTD SVG 20010904//EN"
 "http://www.w3.org/TR/2001/REC-SVG-20010904/DTD/svg10.dtd">
<svg version="1.0" xmlns="http://www.w3.org/2000/svg"
 width="382.000000pt" height="382.000000pt" viewBox="0 0 382.000000 382.000000"
 preserveAspectRatio="xMidYMid meet">
<metadata>
Created by potrace 1.14, written by Peter Selinger 2001-2017
</metadata>
<g transform="translate(0.000000,382.000000) scale(0.100000,-0.100000)"
fill="#000000" stroke="none">
<path d="M0 1910 l0 -1910 1910 0 1910 0 0 1910 0 1910 -1910 0 -1910 0 0
-1910z m3314 1484 c25 -10 19 -30 -38 -132 -52 -92 -95 -207 -82 -219 3 -4 52
0 108 8 112 15 179 14 209 -2 27 -14 25 -64 -4 -93 -30 -30 -117 -62 -192 -71
-103 -12 -101 3 -23 -176 60 -137 69 -165 60 -185 -19 -40 -148 -94 -227 -94
-70 0 -83 14 -137 143 -28 64 -53 117 -57 117 -14 0 -184 -131 -243 -187 -67
-63 -90 -73 -166 -73 -98 0 -152 51 -137 129 9 47 99 134 249 241 64 46 116
86 116 90 0 10 -54 38 -134 69 -113 44 -126 54 -126 100 0 65 64 125 152 141
50 10 121 -4 206 -39 l69 -29 39 81 c49 101 66 123 116 148 62 32 197 50 242
33z m-2480 -878 c42 -17 97 -84 134 -164 26 -54 31 -60 43 -46 31 37 145 108
212 131 65 23 82 25 197 21 98 -4 138 -10 183 -27 110 -43 188 -124 229 -238
32 -89 36 -255 9 -364 -56 -225 -222 -449 -403 -544 -38 -20 -68 -38 -66 -40
2 -1 38 2 80 6 212 24 427 153 609 366 87 101 118 124 143 103 41 -33 27 -171
-28 -284 -98 -202 -303 -354 -559 -413 -96 -23 -136 -26 -282 -27 -148 0 -178
2 -233 21 -125 42 -182 106 -182 204 0 31 5 69 10 86 10 28 16 30 85 41 149
23 250 98 323 240 50 95 70 166 82 293 11 109 3 152 -37 199 -57 69 -138 79
-241 30 -122 -58 -210 -173 -310 -410 -58 -135 -70 -201 -207 -1100 -46 -297
-50 -314 -92 -356 -62 -62 -135 -43 -232 61 -77 82 -86 120 -78 304 14 310 97
799 192 1136 79 282 234 696 277 742 20 21 62 40 96 42 7 1 28 -5 46 -13z"/>
</g>
</svg>
